<svg width="16" height="16" viewBox="0 0 16 16" fill="none" xmlns="http://www.w3.org/2000/svg">
<path d="M8.3754 3.74285C9.409 3.74285 10.2469 2.90498 10.2469 1.87142C10.2469 0.837865 9.409 0 8.3754 0C7.3418 0 6.50391 0.837865 6.50391 1.87142C6.50391 2.90498 7.3418 3.74285 8.3754 3.74285Z" fill="white"/>
<path d="M8.37473 16C8.99482 16 9.4975 15.4973 9.4975 14.8772C9.4975 14.2572 8.99482 13.7545 8.37473 13.7545C7.75464 13.7545 7.25195 14.2572 7.25195 14.8772C7.25195 15.4973 7.75464 16 8.37473 16Z" fill="white"/>
<path d="M3.77626 5.45999C4.70657 5.45999 5.46073 4.70586 5.46073 3.77559C5.46073 2.84532 4.70657 2.09119 3.77626 2.09119C2.84596 2.09119 2.0918 2.84532 2.0918 3.77559C2.0918 4.70586 2.84596 5.45999 3.77626 5.45999Z" fill="white"/>
<path d="M12.9748 13.9076C13.4916 13.9076 13.9106 13.4886 13.9106 12.9718C13.9106 12.4551 13.4916 12.0361 12.9748 12.0361C12.458 12.0361 12.0391 12.4551 12.0391 12.9718C12.0391 13.4886 12.458 13.9076 12.9748 13.9076Z" fill="white"/>
<path d="M1.87183 9.87136C2.69851 9.87136 3.36866 9.20123 3.36866 8.37458C3.36866 7.54794 2.69851 6.87781 1.87183 6.87781C1.04515 6.87781 0.375 7.54794 0.375 8.37458C0.375 9.20123 1.04515 9.87136 1.87183 9.87136Z" fill="white"/>
<path d="M14.879 9.12214C15.2921 9.12214 15.6271 8.78722 15.6271 8.37406C15.6271 7.96091 15.2921 7.62598 14.879 7.62598C14.4658 7.62598 14.1309 7.96091 14.1309 8.37406C14.1309 8.78722 14.4658 9.12214 14.879 9.12214Z" fill="white"/>
<path d="M2.85072 12.0471C2.33882 12.559 2.33882 13.3872 2.85072 13.8991C3.36201 14.4109 4.19149 14.4109 4.70278 13.8991C5.21468 13.3872 5.21468 12.559 4.70278 12.0471C4.19149 11.5346 3.36262 11.5297 2.85072 12.0471Z" fill="white"/>
<path d="M12.9732 4.33672C13.2831 4.33672 13.5343 4.08553 13.5343 3.77566C13.5343 3.4658 13.2831 3.2146 12.9732 3.2146C12.6633 3.2146 12.4121 3.4658 12.4121 3.77566C12.4121 4.08553 12.6633 4.33672 12.9732 4.33672Z" fill="white"/>
</svg>
