<svg viewBox="0 0 12 16" fill="none" xmlns="http://www.w3.org/2000/svg">
  <path
    d="M11.0364 6.22201H10.1475V5.03681C10.1475 2.7495 8.28668 0.888672 5.99935 0.888672C3.71202 0.888672 1.85121 2.7495 1.85121 5.03681V6.22201H0.962321C0.798543 6.22201 0.666016 6.35453 0.666016 6.51831V13.9257C0.666016 14.5794 1.19754 15.1109 1.85121 15.1109H10.1475C10.8012 15.1109 11.3327 14.5794 11.3327 13.9257V6.51831C11.3327 6.35453 11.2002 6.22201 11.0364 6.22201ZM6.88652 12.4115C6.89576 12.4951 6.86888 12.5791 6.81274 12.6419C6.7566 12.7046 6.67615 12.7405 6.59196 12.7405H5.40677C5.32257 12.7405 5.24213 12.7046 5.18599 12.6419C5.12985 12.5791 5.10293 12.4952 5.11221 12.4115L5.29913 10.7307C4.9956 10.5099 4.81418 10.1607 4.81418 9.77756C4.81418 9.12392 5.34571 8.59237 5.99938 8.59237C6.65304 8.59237 7.18457 9.12389 7.18457 9.77756C7.18457 10.1607 7.00315 10.5099 6.69963 10.7307L6.88652 12.4115ZM8.36971 6.22201H3.62899V5.03681C3.62899 3.72981 4.69235 2.66645 5.99935 2.66645C7.30635 2.66645 8.36971 3.72981 8.36971 5.03681V6.22201Z"
    fill="#EAEAEA" />
</svg>