<svg viewBox="0 0 24 24" fill="none" xmlns="http://www.w3.org/2000/svg">
  <path
    d="M21.4342 4.21037C21.306 2.55639 19.9202 1.24951 18.234 1.24951H3.21094C1.44042 1.24951 0 2.68993 0 4.46045V19.3167C0 21.0872 1.44042 22.5277 3.21094 22.5277H20.5663C22.3368 22.5277 23.7772 21.0872 23.7772 19.3167V7.30112C23.7772 5.8314 22.7842 4.59006 21.4342 4.21037ZM3.21094 2.74951H18.234C19.0503 2.74951 19.7344 3.32425 19.9041 4.09023H3.21094C2.5823 4.09023 1.99575 4.27253 1.5 4.58603V4.46045C1.5 3.51704 2.26753 2.74951 3.21094 2.74951ZM20.5662 21.0277H3.21094C2.26753 21.0277 1.5 20.2601 1.5 19.3167V7.30112C1.5 6.35771 2.26753 5.59018 3.21094 5.59018H20.5663C21.5097 5.59018 22.2772 6.35771 22.2772 7.30112V9.91853H17.4947C15.5996 9.91853 14.0578 11.4604 14.0578 13.3555C14.0578 15.2507 15.5996 16.7926 17.4947 16.7926H22.2772V19.3167C22.2772 20.2601 21.5096 21.0277 20.5662 21.0277ZM22.2772 15.2926H17.4947C16.4267 15.2926 15.5578 14.4236 15.5578 13.3555C15.5578 12.2874 16.4267 11.4185 17.4947 11.4185H22.2772V15.2926Z"
    fill="white" />
  <path
    d="M17.773 14.1933C18.2043 14.1933 18.5539 13.8437 18.5539 13.4124C18.5539 12.9812 18.2043 12.6316 17.773 12.6316C17.3418 12.6316 16.9922 12.9812 16.9922 13.4124C16.9922 13.8437 17.3418 14.1933 17.773 14.1933Z"
    fill="#1F2C48" />
</svg>