<svg width="64" height="64" viewBox="0 0 64 64" fill="none" xmlns="http://www.w3.org/2000/svg">
<circle cx="32" cy="32" r="32" fill="#C4C4C4"/>
<path d="M48 31.9997C48 33.4717 47.2036 34.6663 46.2222 34.6663L17.7778 34.6663C16.7964 34.6663 16 33.4717 16 31.9997C16 30.5277 16.7964 29.333 17.7778 29.333L46.2222 29.333C47.2036 29.333 48 30.5277 48 31.9997Z" fill="black"/>
<path d="M31.9993 16C30.5273 16 29.3327 16.7964 29.3327 17.7778L29.3327 46.2222C29.3327 47.2036 30.5273 48 31.9993 48C33.4713 48 34.666 47.2036 34.666 46.2222L34.666 17.7778C34.666 16.7964 33.4713 16 31.9993 16Z" fill="black"/>
</svg>
