<svg width="64" height="64" viewBox="0 0 64 64" >
<path d="M47.7871 16.5027L32.9079 8.23528C32.6304 8.08098 32.3181 8 32.0007 8C31.6832 8 31.3709 8.08098 31.0935 8.23528L16.2143 16.5027C15.3414 16.9877 14.6141 17.6972 14.1077 18.5578C13.6012 19.4183 13.3341 20.3986 13.334 21.3971V43.4667C13.3369 45.9412 14.3212 48.3134 16.0709 50.0631C17.8206 51.8128 20.1929 52.7971 22.6673 52.8001H41.334C43.8084 52.7971 46.1807 51.8128 47.9304 50.0631C49.6801 48.3134 50.6644 45.9412 50.6673 43.4667V21.3971C50.6672 20.3986 50.4001 19.4183 49.8936 18.5578C49.3872 17.6972 48.6599 16.9877 47.7871 16.5027ZM46.934 43.4667C46.934 44.952 46.344 46.3763 45.2938 47.4265C44.2436 48.4767 42.8192 49.0667 41.334 49.0667H22.6673C21.1821 49.0667 19.7577 48.4767 18.7075 47.4265C17.6573 46.3763 17.0673 44.952 17.0673 43.4667V21.3971C17.0665 21.0632 17.1552 20.7352 17.3243 20.4473C17.4934 20.1593 17.7366 19.922 18.0287 19.7601L32.0007 12.0022L45.9745 19.7601C46.2662 19.9223 46.509 20.1597 46.6778 20.4476C46.8465 20.7355 46.935 21.0634 46.934 21.3971V43.4667Z" />
<path d="M31.9992 23.8666C33.5456 23.8666 34.7992 22.613 34.7992 21.0666C34.7992 19.5202 33.5456 18.2666 31.9992 18.2666C30.4528 18.2666 29.1992 19.5202 29.1992 21.0666C29.1992 22.613 30.4528 23.8666 31.9992 23.8666Z" />
</svg>
