<svg width="48" height="48" viewBox="0 0 48 48" xmlns="http://www.w3.org/2000/svg">
<path d="M41.8664 0H6.13359C2.75147 0 0 2.75156 0 6.13369V41.8664C0 45.2484 2.75147 48 6.13359 48H41.8664C45.2485 48 48 45.2484 48 41.8663V6.13369C48 2.75156 45.2485 0 41.8664 0ZM45.1727 41.8664C45.1727 43.6896 43.6895 45.1727 41.8664 45.1727H6.13359C4.31044 45.1727 2.82722 43.6895 2.82722 41.8664V36.7095L12.1324 28.7922C12.4719 28.5033 12.9673 28.5006 13.3101 28.7852L19.1389 33.6253C19.7009 34.0919 20.5259 34.0537 21.0424 33.5366L34.892 19.6659C35.1423 19.4152 35.4341 19.3908 35.5865 19.3986C35.7383 19.4063 36.0266 19.4605 36.25 19.7357L45.1728 30.7223V41.8664H45.1727ZM45.1727 26.2373L38.4446 17.953C37.7774 17.1314 36.7884 16.6291 35.7313 16.5748C34.6749 16.5214 33.6391 16.9191 32.8913 17.6681L19.953 30.6263L15.1164 26.6102C13.714 25.4456 11.6887 25.4577 10.3002 26.6391L2.82722 32.9974V6.13369C2.82722 4.31053 4.31044 2.82731 6.13359 2.82731H41.8664C43.6896 2.82731 45.1727 4.31053 45.1727 6.13369V26.2373Z" />
</svg>
