<svg width="64" height="64" viewBox="0 0 64 64">
  <path d="M53.3327 31.9998C53.3327 32.4713 53.1454 32.9235 52.812 33.2569C52.4786 33.5903 52.0264 33.7776 51.5549 33.7776C51.0834 33.7776 50.6312 33.5903 50.2978 33.2569C49.9644 32.9235 49.7771 32.4713 49.7771 31.9998C49.7719 27.2865 47.8973 22.7676 44.5644 19.4348C41.2316 16.1019 36.7127 14.2272 31.9993 14.2221C31.5279 14.2221 31.0757 14.0348 30.7423 13.7014C30.4089 13.368 30.2216 12.9158 30.2216 12.4443C30.2216 11.9728 30.4089 11.5206 30.7423 11.1872C31.0757 10.8538 31.5279 10.6665 31.9993 10.6665C37.6554 10.6726 43.0781 12.9222 47.0775 16.9216C51.077 20.9211 53.3266 26.3438 53.3327 31.9998ZM39.1105 33.7776C39.582 33.7776 40.0341 33.5903 40.3675 33.2569C40.7009 32.9235 40.8882 32.4713 40.8882 31.9998C40.8882 31.5283 40.7009 31.0762 40.3675 30.7428C40.0341 30.4094 39.582 30.2221 39.1105 30.2221H35.0625C34.7526 29.6895 34.3097 29.2466 33.7771 28.9367V23.1109C33.7771 22.6395 33.5898 22.1873 33.2564 21.8539C32.923 21.5205 32.4708 21.3332 31.9993 21.3332C31.5279 21.3332 31.0757 21.5205 30.7423 21.8539C30.4089 22.1873 30.2216 22.6395 30.2216 23.1109V28.9367C29.7501 29.2082 29.3474 29.5846 29.0447 30.0367C28.742 30.4889 28.5475 31.0046 28.4761 31.544C28.4048 32.0834 28.4586 32.632 28.6333 33.1472C28.8081 33.6625 29.0991 34.1306 29.4838 34.5154C29.8685 34.9001 30.3367 35.1911 30.8519 35.3659C31.3672 35.5406 31.9158 35.5944 32.4552 35.523C32.9946 35.4517 33.5103 35.2572 33.9624 34.9545C34.4146 34.6518 34.791 34.2491 35.0625 33.7776H39.1105ZM13.914 22.7269C13.5624 22.7269 13.2187 22.8312 12.9263 23.0266C12.634 23.2219 12.4061 23.4996 12.2716 23.8244C12.137 24.1492 12.1018 24.5067 12.1704 24.8516C12.239 25.1964 12.4083 25.5132 12.6569 25.7618C12.9056 26.0104 13.2223 26.1797 13.5672 26.2483C13.912 26.3169 14.2695 26.2817 14.5943 26.1472C14.9192 26.0126 15.1968 25.7848 15.3922 25.4924C15.5875 25.2001 15.6918 24.8563 15.6918 24.5047C15.6918 24.0332 15.5045 23.581 15.1711 23.2476C14.8377 22.9142 14.3855 22.7269 13.914 22.7269ZM14.2216 31.9998C14.2216 31.6482 14.1173 31.3045 13.922 31.0122C13.7266 30.7198 13.449 30.4919 13.1241 30.3574C12.7993 30.2228 12.4418 30.1876 12.097 30.2562C11.7521 30.3248 11.4353 30.4941 11.1867 30.7428C10.9381 30.9914 10.7688 31.3082 10.7002 31.653C10.6316 31.9979 10.6668 32.3553 10.8013 32.6802C10.9359 33.005 11.1638 33.2827 11.4561 33.478C11.7485 33.6733 12.0922 33.7776 12.4438 33.7776C12.9153 33.7776 13.3675 33.5903 13.7009 33.2569C14.0343 32.9235 14.2216 32.4713 14.2216 31.9998ZM31.9993 49.7776C31.6477 49.7776 31.304 49.8819 31.0117 50.0772C30.7193 50.2726 30.4915 50.5502 30.3569 50.8751C30.2223 51.1999 30.1871 51.5574 30.2557 51.9022C30.3243 52.2471 30.4936 52.5638 30.7423 52.8125C30.9909 53.0611 31.3077 53.2304 31.6525 53.299C31.9974 53.3676 32.3548 53.3324 32.6797 53.1978C33.0045 53.0633 33.2822 52.8354 33.4775 52.5431C33.6729 52.2507 33.7771 51.907 33.7771 51.5554C33.7771 51.0839 33.5898 50.6317 33.2564 50.2983C32.923 49.9649 32.4708 49.7776 31.9993 49.7776ZM18.17 16.3678C17.8184 16.3678 17.4747 16.4721 17.1823 16.6674C16.89 16.8628 16.6621 17.1404 16.5276 17.4653C16.393 17.7901 16.3578 18.1476 16.4264 18.4924C16.495 18.8373 16.6643 19.1541 16.9129 19.4027C17.1616 19.6513 17.4783 19.8206 17.8232 19.8892C18.168 19.9578 18.5255 19.9226 18.8503 19.7881C19.1752 19.6535 19.4528 19.4256 19.6482 19.1333C19.8435 18.8409 19.9478 18.4972 19.9478 18.1456C19.9478 17.6741 19.7605 17.2219 19.4271 16.8885C19.0937 16.5551 18.6415 16.3678 18.17 16.3678ZM24.4953 12.1616C24.1437 12.1616 23.8 12.2659 23.5077 12.4612C23.2153 12.6566 22.9875 12.9342 22.8529 13.2591C22.7183 13.5839 22.6831 13.9414 22.7517 14.2862C22.8203 14.6311 22.9896 14.9478 23.2383 15.1965C23.4869 15.4451 23.8037 15.6144 24.1485 15.683C24.4934 15.7516 24.8508 15.7164 25.1757 15.5818C25.5005 15.4473 25.7782 15.2194 25.9735 14.9271C26.1689 14.6347 26.2731 14.291 26.2731 13.9394C26.2731 13.4679 26.0858 13.0157 25.7524 12.6823C25.419 12.3489 24.9668 12.1616 24.4953 12.1616ZM13.914 37.7172C13.5624 37.7172 13.2187 37.8214 12.9263 38.0168C12.634 38.2121 12.4061 38.4898 12.2716 38.8146C12.137 39.1395 12.1018 39.4969 12.1704 39.8418C12.239 40.1866 12.4083 40.5034 12.6569 40.752C12.9056 41.0007 13.2223 41.17 13.5672 41.2386C13.912 41.3072 14.2695 41.272 14.5943 41.1374C14.9192 41.0028 15.1968 40.775 15.3922 40.4826C15.5875 40.1903 15.6918 39.8466 15.6918 39.4949C15.6918 39.0235 15.5045 38.5713 15.1711 38.2379C14.8377 37.9045 14.3855 37.7172 13.914 37.7172ZM18.17 44.0763C17.8184 44.0763 17.4747 44.1805 17.1823 44.3759C16.89 44.5712 16.6621 44.8489 16.5276 45.1737C16.393 45.4986 16.3578 45.856 16.4264 46.2009C16.495 46.5457 16.6643 46.8625 16.9129 47.1111C17.1616 47.3598 17.4783 47.5291 17.8232 47.5977C18.168 47.6663 18.5255 47.6311 18.8503 47.4965C19.1752 47.362 19.4528 47.1341 19.6482 46.8417C19.8435 46.5494 19.9478 46.2057 19.9478 45.8541C19.9478 45.3826 19.7605 44.9304 19.4271 44.597C19.0937 44.2636 18.6415 44.0763 18.17 44.0763ZM24.4953 48.2825C24.1437 48.2825 23.8 48.3868 23.5077 48.5821C23.2153 48.7775 22.9875 49.0551 22.8529 49.38C22.7183 49.7048 22.6831 50.0623 22.7517 50.4071C22.8203 50.752 22.9896 51.0687 23.2383 51.3174C23.4869 51.566 23.8037 51.7353 24.1485 51.8039C24.4934 51.8725 24.8508 51.8373 25.1757 51.7027C25.5005 51.5682 25.7782 51.3403 25.9735 51.048C26.1689 50.7556 26.2731 50.4119 26.2731 50.0603C26.2731 49.5888 26.0858 49.1366 25.7524 48.8032C25.419 48.4698 24.9668 48.2825 24.4953 48.2825ZM50.0847 37.7172C49.7331 37.7172 49.3894 37.8214 49.097 38.0168C48.8046 38.2121 48.5768 38.4898 48.4422 38.8146C48.3077 39.1395 48.2725 39.4969 48.3411 39.8418C48.4097 40.1866 48.579 40.5034 48.8276 40.752C49.0762 41.0007 49.393 41.17 49.7379 41.2386C50.0827 41.3072 50.4402 41.272 50.765 41.1374C51.0899 41.0028 51.3675 40.775 51.5628 40.4826C51.7582 40.1903 51.8625 39.8466 51.8625 39.4949C51.8625 39.2615 51.8165 39.0303 51.7271 38.8146C51.6378 38.5989 51.5068 38.403 51.3418 38.2379C51.1767 38.0728 50.9807 37.9418 50.765 37.8525C50.5493 37.7632 50.3181 37.7172 50.0847 37.7172ZM45.8287 44.0763C45.4771 44.0763 45.1334 44.1805 44.841 44.3759C44.5486 44.5712 44.3208 44.8489 44.1862 45.1737C44.0517 45.4986 44.0165 45.856 44.0851 46.2009C44.1537 46.5457 44.323 46.8625 44.5716 47.1111C44.8202 47.3598 45.137 47.5291 45.4819 47.5977C45.8267 47.6663 46.1842 47.6311 46.509 47.4965C46.8339 47.362 47.1115 47.1341 47.3069 46.8417C47.5022 46.5494 47.6065 46.2057 47.6065 45.8541C47.6065 45.6206 47.5605 45.3894 47.4711 45.1737C47.3818 44.958 47.2508 44.7621 47.0858 44.597C46.9207 44.4319 46.7247 44.3009 46.509 44.2116C46.2933 44.1223 46.0621 44.0763 45.8287 44.0763ZM39.5033 48.2825C39.1517 48.2825 38.808 48.3868 38.5157 48.5821C38.2233 48.7775 37.9954 49.0551 37.8609 49.38C37.7263 49.7048 37.6911 50.0623 37.7597 50.4071C37.8283 50.752 37.9976 51.0687 38.2463 51.3174C38.4949 51.566 38.8117 51.7353 39.1565 51.8039C39.5014 51.8725 39.8588 51.8373 40.1837 51.7027C40.5085 51.5682 40.7862 51.3403 40.9815 51.048C41.1769 50.7556 41.2811 50.4119 41.2811 50.0603C41.2811 49.8268 41.2351 49.5956 41.1458 49.38C41.0565 49.1643 40.9255 48.9683 40.7604 48.8032C40.5953 48.6381 40.3994 48.5072 40.1837 48.4178C39.968 48.3285 39.7368 48.2825 39.5033 48.2825Z" fill="currentColor"/>
</svg>
