<svg width="64" height="64" viewBox="0 0 64 64" fill="none" xmlns="http://www.w3.org/2000/svg">
<path d="M31.9993 10.567H31.8993V10.667V13.1768V13.2768H31.9993C42.3234 13.2768 50.7229 21.6763 50.7229 32.0003C50.7229 42.3244 42.3234 50.7239 31.9993 50.7239C21.6753 50.7239 13.2758 42.3244 13.2758 32.0003C13.2758 27.8903 14.631 23.8991 17.1093 20.6507C17.4541 20.7519 17.8186 20.8062 18.1954 20.8062C20.3264 20.8062 22.0601 19.0725 22.0601 16.9415C22.0601 14.8105 20.3264 13.0768 18.1954 13.0768C16.0644 13.0768 14.3307 14.8105 14.3307 16.9415C14.3307 17.7081 14.5554 18.4232 14.9419 19.0246C12.1127 22.7409 10.566 27.3029 10.566 32.0003C10.566 37.7252 12.7956 43.108 16.8437 47.156C20.8917 51.2041 26.2745 53.4337 31.9993 53.4337C37.7242 53.4337 43.107 51.2041 47.155 47.156C51.2031 43.108 53.4327 37.7252 53.4327 32.0003C53.4327 26.2755 51.2031 20.8927 47.155 16.8447C43.107 12.7965 37.7242 10.567 31.9993 10.567Z" fill="#4C576D" stroke="#4C576D" stroke-width="0.2"/>
<path d="M18.566 32.0003C18.566 35.0093 21.3853 37.4337 24.8199 37.4337C26.3079 37.4337 28.0747 36.6158 30.2145 34.9658C30.9187 34.4228 31.538 33.8835 31.9993 33.4616C32.4607 33.8835 33.08 34.4228 33.7842 34.9658C35.924 36.6158 37.6908 37.4337 39.1788 37.4337C42.6134 37.4337 45.4327 35.0093 45.4327 32.0003C45.4327 28.9913 42.6134 26.567 39.1788 26.567C37.6908 26.567 35.924 27.3848 33.7842 29.0349C33.08 29.5778 32.4607 30.1172 31.9993 30.5391C31.538 30.1172 30.9186 29.5778 30.2145 29.0349L30.1535 29.114L30.2145 29.0349C28.0747 27.3848 26.3079 26.567 24.8199 26.567C21.3853 26.567 18.566 28.9913 18.566 32.0003ZM39.1788 28.5448C41.3997 28.5448 43.1814 30.108 43.1814 32.0003C43.1814 33.8927 41.3997 35.4559 39.1788 35.4559C38.8189 35.4559 38.3847 35.3373 37.9046 35.1286C37.4259 34.9205 36.9086 34.6259 36.3845 34.2812C35.3688 33.6132 34.3346 32.7616 33.5165 32.0003C34.3347 31.239 35.3689 30.3874 36.3846 29.7194C36.9087 29.3747 37.426 29.0801 37.9046 28.872C38.3847 28.6633 38.8189 28.5448 39.1788 28.5448ZM24.8199 28.5448C25.1799 28.5448 25.6141 28.6634 26.0943 28.8721C26.573 29.0802 27.0904 29.3748 27.6145 29.7196C28.6302 30.3877 29.6645 31.2394 30.4826 32.0007C29.6653 32.7619 28.6318 33.6135 27.6163 34.2814C27.0923 34.6261 26.5749 34.9206 26.0959 35.1287C25.6155 35.3373 25.1807 35.4559 24.8199 35.4559C22.599 35.4559 20.8173 33.8927 20.8173 32.0003C20.8173 30.108 22.599 28.5448 24.8199 28.5448Z" fill="#4C576D" stroke="#4C576D" stroke-width="0.2"/>
</svg>
