<svg width="18" height="18" viewBox="0 0 18 18" xmlns="http://www.w3.org/2000/svg">
  <path
    d="M11.9683 10.4717L9.64453 8.72891V5.17871C9.64453 4.82174 9.35599 4.5332 8.99902 4.5332C8.64206 4.5332 8.35352 4.82174 8.35352 5.17871V9.05169C8.35352 9.25501 8.44906 9.44674 8.61172 9.5681L11.1937 11.5046C11.3099 11.5917 11.4454 11.6337 11.5803 11.6337C11.7772 11.6337 11.9709 11.5452 12.0974 11.3748C12.3118 11.0901 12.2536 10.6854 11.9683 10.4717Z" />
  <path
    d="M8.99935 0.666992C4.40407 0.666992 0.666016 4.40505 0.666016 9.00033C0.666016 13.5956 4.40407 17.3337 8.99935 17.3337C13.5946 17.3337 17.3327 13.5956 17.3327 9.00033C17.3327 4.40505 13.5946 0.666992 8.99935 0.666992ZM8.99935 16.0427C5.1167 16.0427 1.957 12.883 1.957 9.00033C1.957 5.11768 5.1167 1.95798 8.99935 1.95798C12.8827 1.95798 16.0417 5.11768 16.0417 9.00033C16.0417 12.883 12.882 16.0427 8.99935 16.0427Z" />
</svg>