<svg  viewBox="0 0 14 12" xmlns="http://www.w3.org/2000/svg">
  <path
    d="M6.99972 12C6.80448 12 6.61625 11.9304 6.46955 11.8041C5.91553 11.3276 5.38138 10.8799 4.91012 10.4849L4.90771 10.4829C3.52605 9.32487 2.33294 8.32484 1.50279 7.33973C0.574812 6.23843 0.142578 5.19425 0.142578 4.05354C0.142578 2.94525 0.528983 1.92279 1.23054 1.17436C1.94046 0.417075 2.91459 0 3.97377 0C4.76542 0 5.49041 0.24615 6.12856 0.731554C6.45061 0.976572 6.74254 1.27644 6.99972 1.62621C7.25701 1.27644 7.54883 0.976572 7.87099 0.731554C8.50914 0.24615 9.23413 0 10.0258 0C11.0849 0 12.0591 0.417075 12.769 1.17436C13.4706 1.92279 13.8569 2.94525 13.8569 4.05354C13.8569 5.19425 13.4247 6.23843 12.4968 7.33962C11.6666 8.32484 10.4736 9.32477 9.09215 10.4827C8.62005 10.8782 8.08507 11.3267 7.52979 11.8043C7.3832 11.9304 7.19486 12 6.99972 12ZM3.97377 0.790107C3.14164 0.790107 2.3772 1.11673 1.82108 1.70988C1.2567 2.31197 0.945836 3.14427 0.945836 4.05354C0.945836 5.01293 1.30838 5.87096 2.12127 6.83559C2.90695 7.76802 4.07558 8.74747 5.42868 9.88159L5.43119 9.88365C5.90423 10.2801 6.44046 10.7296 6.99857 11.2096C7.56002 10.7287 8.0971 10.2785 8.57108 9.88138C9.92407 8.74726 11.0926 7.76802 11.8783 6.83559C12.6911 5.87096 13.0536 5.01293 13.0536 4.05354C13.0536 3.14427 12.7427 2.31197 12.1784 1.70988C11.6223 1.11673 10.8578 0.790107 10.0258 0.790107C9.41619 0.790107 8.85651 0.980688 8.36234 1.3565C7.92194 1.69156 7.61516 2.11512 7.4353 2.41148C7.34281 2.56389 7.18 2.65486 6.99972 2.65486C6.81944 2.65486 6.65663 2.56389 6.56414 2.41148C6.38438 2.11512 6.0776 1.69156 5.6371 1.3565C5.14293 0.980688 4.58325 0.790107 3.97377 0.790107Z" />
</svg>