<svg width="16" height="16" viewBox="0 0 16 16" fill="none" xmlns="http://www.w3.org/2000/svg">
  <path
    d="M15.5 4.96858L15.5 11.0314C15.5 13.4954 13.4954 15.5 11.0314 15.5L4.96858 15.5C2.50459 15.5 0.5 13.4954 0.5 11.0314L0.5 4.96858C0.499999 2.5046 2.50459 0.500001 4.96858 0.5L11.0314 0.5C13.4954 0.500027 15.5 2.50462 15.5 4.96858ZM4.96858 2.009C3.33406 2.009 2.009 3.33406 2.009 4.96858L2.009 11.0314C2.009 12.6659 3.33406 13.991 4.96858 13.991L11.0314 13.991C12.666 13.991 13.991 12.6659 13.991 11.0314L13.991 4.96858C13.991 3.33406 12.666 2.009 11.0314 2.009L4.96858 2.009Z"
    fill="url(#paint0_linear_2941_2272)" />
  <path
    d="M11.8789 7.99937C11.8789 10.1386 10.1386 11.8789 7.9994 11.8789C5.86025 11.8789 4.11987 10.1386 4.11987 7.99937C4.11987 5.86019 5.86022 4.11984 7.9994 4.11984C10.1386 4.11984 11.8789 5.86019 11.8789 7.99937ZM5.62884 7.99937C5.62884 9.30859 6.69015 10.3699 7.99937 10.3699C9.30859 10.3699 10.3699 9.30857 10.3699 7.99937C10.3699 6.69015 9.30859 5.62884 7.99937 5.62884C6.69018 5.62884 5.62884 6.69018 5.62884 7.99937Z"
    fill="url(#paint1_linear_2941_2272)" />
  <path
    d="M10.9201 4.11335C10.9201 3.59994 11.3363 3.18374 11.8497 3.18374C12.3631 3.18374 12.7793 3.59994 12.7793 4.11335C12.7793 4.62677 12.3631 5.04297 11.8497 5.04297C11.3363 5.04297 10.9201 4.62677 10.9201 4.11335Z"
    fill="url(#paint2_linear_2941_2272)" />
  <defs>
    <linearGradient id="paint0_linear_2941_2272" x1="0.543663" y1="8" x2="15.3835" y2="8"
      gradientUnits="userSpaceOnUse">
      <stop stop-color="#E09B3D" />
      <stop offset="0.3" stop-color="#C74C4D" />
      <stop offset="0.6" stop-color="#C21975" />
      <stop offset="1" stop-color="#7024C4" />
    </linearGradient>
    <linearGradient id="paint1_linear_2941_2272" x1="0.543036" y1="7.99937" x2="15.3829" y2="7.99937"
      gradientUnits="userSpaceOnUse">
      <stop stop-color="#E09B3D" />
      <stop offset="0.3" stop-color="#C74C4D" />
      <stop offset="0.6" stop-color="#C21975" />
      <stop offset="1" stop-color="#7024C4" />
    </linearGradient>
    <linearGradient id="paint2_linear_2941_2272" x1="0.542945" y1="4.11335" x2="15.3828" y2="4.11335"
      gradientUnits="userSpaceOnUse">
      <stop stop-color="#E09B3D" />
      <stop offset="0.3" stop-color="#C74C4D" />
      <stop offset="0.6" stop-color="#C21975" />
      <stop offset="1" stop-color="#7024C4" />
    </linearGradient>
  </defs>
</svg>