<svg xmlns="http://www.w3.org/2000/svg">
<path fill-rule="evenodd" clip-rule="evenodd" d="M3.72196 1.95634C3.17124 1.95634 2.64307 2.17158 2.25365 2.55472C1.86423 2.93786 1.64546 3.45751 1.64546 3.99935C1.64546 4.54119 1.86423 5.06084 2.25365 5.44398C2.44647 5.63369 2.67539 5.78417 2.92732 5.88684C3.17925 5.98952 3.44927 6.04236 3.72196 6.04236H5.36131C5.72346 6.04236 6.01704 6.33121 6.01704 6.68752C6.01704 7.04383 5.72346 7.33268 5.36131 7.33268H3.72196C3.27705 7.33268 2.83649 7.24646 2.42544 7.07895C2.01439 6.91143 1.6409 6.6659 1.3263 6.35637C0.690931 5.73125 0.333984 4.8834 0.333984 3.99935C0.333984 3.11529 0.690931 2.26745 1.3263 1.64233C1.96167 1.01721 2.82341 0.666016 3.72196 0.666016H5.36131C5.72346 0.666016 6.01704 0.954864 6.01704 1.31118C6.01704 1.66749 5.72346 1.95634 5.36131 1.95634H3.72196ZM7.98426 1.31118C7.98426 0.954864 8.27784 0.666016 8.64 0.666016H10.2793C10.7243 0.666016 11.1648 0.752235 11.5759 0.919751C11.9869 1.08727 12.3604 1.3328 12.675 1.64233C12.9896 1.95186 13.2392 2.31932 13.4094 2.72374C13.5797 3.12816 13.6673 3.56161 13.6673 3.99935C13.6673 4.43709 13.5797 4.87054 13.4094 5.27496C13.2392 5.67938 12.9896 6.04684 12.675 6.35637C12.3604 6.6659 11.9869 6.91143 11.5759 7.07895C11.1648 7.24646 10.7243 7.33268 10.2793 7.33268H8.64C8.27784 7.33268 7.98426 7.04383 7.98426 6.68752C7.98426 6.33121 8.27784 6.04236 8.64 6.04236H10.2793C10.552 6.04236 10.8221 5.98952 11.074 5.88684C11.3259 5.78417 11.5548 5.63369 11.7476 5.44398C11.9405 5.25426 12.0934 5.02904 12.1978 4.78117C12.3021 4.5333 12.3558 4.26764 12.3558 3.99935C12.3558 3.73106 12.3021 3.46539 12.1978 3.21752C12.0934 2.96965 11.9405 2.74443 11.7476 2.55472C11.5548 2.36501 11.3259 2.21452 11.074 2.11185C10.8221 2.00918 10.552 1.95634 10.2793 1.95634H8.64C8.27784 1.95634 7.98426 1.66749 7.98426 1.31118ZM4.15912 3.99935C4.15912 3.64304 4.45271 3.35419 4.81486 3.35419H9.18644C9.5486 3.35419 9.84218 3.64304 9.84218 3.99935C9.84218 4.35566 9.5486 4.64451 9.18644 4.64451H4.81486C4.45271 4.64451 4.15912 4.35566 4.15912 3.99935Z" />
</svg>
