<svg width="25" height="14" viewBox="0 0 25 14" xmlns="http://www.w3.org/2000/svg">
  <path
    d="M22.6064 13.2979H2.39362C1.07378 13.2979 0 12.2241 0 10.9043V2.39362C0 1.07378 1.07378 0 2.39362 0H22.6064C23.9262 0 25 1.07378 25 2.39362V10.9043C25 12.2241 23.9262 13.2979 22.6064 13.2979Z"
    fill="#F4F4F6" />
  <path
    d="M2.39553 1.5957C1.95558 1.5957 1.59766 1.95363 1.59766 2.39358V10.9042C1.59766 11.3442 1.95558 11.7021 2.39553 11.7021H22.6083C23.0482 11.7021 23.4062 11.3442 23.4062 10.9042V2.39358C23.4062 1.95363 23.0482 1.5957 22.6083 1.5957H2.39553Z"
    fill="#EC0C0C" />
  <path
    d="M6.42621 8.50609C6.42472 8.50609 6.42313 8.50609 6.42164 8.50609C6.06073 8.50811 5.68047 8.5096 5.36137 8.51024V3.98928C5.36137 3.54864 5.00414 3.19141 4.5635 3.19141C4.12286 3.19141 3.76562 3.54864 3.76562 3.98928V9.30396C3.76562 9.69263 4.04568 10.0247 4.42871 10.0903C4.48616 10.1002 4.52414 10.1068 5.11807 10.1068C5.40461 10.1068 5.82068 10.1052 6.43052 10.1018C6.87116 10.0993 7.22637 9.74013 7.22392 9.29949C7.22148 8.86034 6.86477 8.50609 6.42621 8.50609Z"
    fill="#F4F4F6" />
  <path
    d="M9.08693 3.19141C8.6463 3.19141 8.28906 3.54864 8.28906 3.98928V9.30843C8.28906 9.74907 8.6463 10.1063 9.08693 10.1063C9.52757 10.1063 9.88481 9.74907 9.88481 9.30843V3.98928C9.88481 3.54864 9.52757 3.19141 9.08693 3.19141Z"
    fill="#F4F4F6" />
  <path
    d="M20.4298 8.51056H18.9864V7.44673H20.2645C20.7051 7.44673 21.0624 7.08949 21.0624 6.64885C21.0624 6.20821 20.7051 5.85098 20.2645 5.85098H18.9864V4.78715H20.4298C20.8704 4.78715 21.2276 4.42992 21.2276 3.98928C21.2276 3.54864 20.8704 3.19141 20.4298 3.19141H18.1885C17.7479 3.19141 17.3906 3.54864 17.3906 3.98928V9.30843C17.3906 9.74907 17.7479 10.1063 18.1885 10.1063H20.4298C20.8704 10.1063 21.2276 9.74907 21.2276 9.30843C21.2276 8.86779 20.8704 8.51056 20.4298 8.51056Z"
    fill="white" />
  <path
    d="M15.7849 3.24199C15.3669 3.10305 14.9151 3.32943 14.7762 3.74768L13.6689 7.08093L12.5049 3.72779C12.3605 3.31156 11.9059 3.09135 11.4895 3.23566C11.0733 3.38018 10.853 3.83481 10.9975 4.25109L12.8161 9.49035C12.8167 9.49216 12.8173 9.49391 12.818 9.49578C12.948 9.86173 13.2951 10.1065 13.6829 10.1065C13.6851 10.1065 13.6872 10.1065 13.6892 10.1064C14.0796 10.1038 14.4264 9.8536 14.552 9.48397C14.5526 9.48226 14.5532 9.48051 14.5538 9.4787L16.2906 4.25071C16.4294 3.83257 16.2031 3.38098 15.7849 3.24199Z"
    fill="#F4F4F6" />
</svg>