<svg width="20" height="20" viewBox="0 0 20 20" fill="none" xmlns="http://www.w3.org/2000/svg">
<path d="M9.99935 1.66699C5.40456 1.66699 1.66602 5.40553 1.66602 10.0003C1.66602 14.5951 5.40456 18.3337 9.99935 18.3337C14.5941 18.3337 18.3327 14.5951 18.3327 10.0003C18.3327 5.40553 14.5941 1.66699 9.99935 1.66699ZM9.99935 17.292C5.97852 17.292 2.70768 14.0212 2.70768 10.0003C2.70768 5.97949 5.97852 2.70866 9.99935 2.70866C14.0202 2.70866 17.291 5.97949 17.291 10.0003C17.291 14.0212 14.0202 17.292 9.99935 17.292Z" fill="white" stroke="white" stroke-width="0.25"/>
<path d="M10.0007 9.47917C9.15378 9.47917 8.43815 9.00208 8.43815 8.4375C8.43815 7.87292 9.15378 7.39583 10.0007 7.39583C10.4798 7.39583 10.9236 7.54583 11.2173 7.80625C11.4319 7.99688 11.76 7.97917 11.9527 7.7625C12.1444 7.54792 12.1246 7.21875 11.909 7.02708C11.5444 6.70312 11.0548 6.48437 10.5215 6.39792V5.83333C10.5215 5.54583 10.2882 5.3125 10.0007 5.3125C9.71315 5.3125 9.47982 5.54583 9.47982 5.83333V6.39583C8.29232 6.58958 7.39648 7.43125 7.39648 8.4375C7.39648 9.58646 8.56523 10.5208 10.0007 10.5208C10.8475 10.5208 11.5632 10.9979 11.5632 11.5625C11.5632 12.1271 10.8475 12.6042 10.0007 12.6042C9.52148 12.6042 9.07773 12.4542 8.78398 12.1937C8.5694 12.0021 8.24023 12.0208 8.04857 12.2375C7.8569 12.4521 7.87669 12.7812 8.09232 12.9729C8.4569 13.2979 8.94648 13.5156 9.47982 13.6031V14.1667C9.47982 14.4542 9.71315 14.6875 10.0007 14.6875C10.2882 14.6875 10.5215 14.4542 10.5215 14.1667V13.6042C11.709 13.4104 12.6048 12.5687 12.6048 11.5625C12.6048 10.4135 11.4361 9.47917 10.0007 9.47917Z" fill="white"/>
</svg>
