<svg width="16" height="16" viewBox="0 0 16 16" fill="none" xmlns="http://www.w3.org/2000/svg">
<path d="M11.0559 0.81777L11.0562 0.81745C11.6127 0.260521 12.5727 0.261508 13.1272 0.816461L15.1728 2.86385C15.4493 3.14051 15.6016 3.50855 15.6016 3.89961C15.6016 4.29066 15.4493 4.65867 15.1728 4.93533L15.1725 4.93565L5.92478 14.1086C5.92476 14.1086 5.92475 14.1086 5.92474 14.1086C5.87175 14.1612 5.80675 14.1991 5.73561 14.2197L5.73532 14.2198L0.962114 15.5847L0.961838 15.5848C0.92235 15.5959 0.881547 15.6016 0.841063 15.6016C0.725651 15.6016 0.613187 15.5563 0.529258 15.4723L11.0559 0.81777ZM11.0559 0.81777L1.89174 10.0723C1.89173 10.0724 1.89172 10.0724 1.8917 10.0724C1.83913 10.1254 1.80133 10.1905 1.78077 10.2616L1.78068 10.2619M11.0559 0.81777L1.78068 10.2619M1.78068 10.2619L0.416931 15.0392L1.78068 10.2619ZM2.10816 12.3304L3.67116 13.8934L5.17328 13.4643V12.7056L4.05325 12.1456L4.05323 12.1456L4.09795 12.0561L2.10816 12.3304ZM2.10816 12.3304L2.53727 10.8283H3.296L3.856 11.9483M2.10816 12.3304L3.856 11.9483M3.856 11.9483C3.85601 11.9483 3.85601 11.9483 3.85601 11.9483L3.856 11.9483ZM3.26251 9.94641L9.64154 3.50998L10.7548 4.62326L4.37126 11.0068L3.96305 10.1902L3.96299 10.19C3.88812 10.0408 3.73574 9.94641 3.5686 9.94641H3.26251ZM5.81148 12.0386L4.99478 11.6304L11.3783 5.24682L12.4916 6.36009L6.05522 12.7391V12.433C6.05522 12.2659 5.96087 12.1135 5.8116 12.0386L5.81148 12.0386ZM1.48308 14.5185L1.83106 13.3004L2.70118 14.1705L1.48308 14.5185ZM14.5503 4.31982L13.118 5.73934L10.2623 2.88365L11.6808 1.45236C11.6809 1.45229 11.6809 1.45221 11.681 1.45214C11.8997 1.23369 12.285 1.23376 12.5036 1.45236L14.5493 3.49802C14.6594 3.60813 14.7198 3.75383 14.7198 3.90942C14.7198 4.06506 14.6593 4.21069 14.5504 4.31972C14.5503 4.31975 14.5503 4.31979 14.5503 4.31982Z" fill="white" stroke="white" stroke-width="0.2"/>
</svg>
