<svg  xmlns="http://www.w3.org/2000/svg">
<path d="M8.03384 2.47679L8.03385 2.47681L13.2081 7.65397C13.2082 7.65401 13.2082 7.65405 13.2083 7.65409C13.5504 7.99325 13.7393 8.4466 13.7423 8.9321L13.7423 8.93256C13.7423 9.41538 13.5562 9.86883 13.2141 10.2109L10.2141 13.2109L10.2139 13.2112C9.87209 13.55 9.41885 13.7391 8.93575 13.7391C8.45293 13.7391 7.99948 13.553 7.65739 13.2109L2.47998 8.03352C2.16864 7.72219 2.00512 7.29267 2.03536 6.85368C2.03537 6.85364 2.03537 6.8536 2.03537 6.85356L2.14124 5.24039C1.79669 5.08211 1.47245 4.85723 1.19138 4.57616C0.668313 4.0531 0.340394 3.39021 0.272365 2.70696C0.201356 1.99392 0.414417 1.34674 0.880737 0.880425C1.82145 -0.0602838 3.48032 0.095078 4.58202 1.18798L4.58223 1.18819C4.74671 1.35267 4.74671 1.61876 4.58223 1.78324C4.41778 1.94768 4.15176 1.94771 3.98728 1.78333C3.19567 0.99454 2.07387 0.877383 1.47866 1.47259C1.1978 1.75345 1.06497 2.15858 1.11193 2.61999L8.03384 2.47679ZM8.03384 2.47679C7.74665 2.1896 7.36233 2.02913 6.95683 2.02913M8.03384 2.47679L6.95683 2.02913M6.95683 2.02913H6.9554M6.95683 2.02913H6.9554M6.9554 2.02913C6.92495 2.02913 6.89079 2.02913 6.85607 2.03223M6.9554 2.02913L6.85607 2.03223M6.85607 2.03223L3.11501 2.27952C3.11497 2.27952 3.11494 2.27953 3.1149 2.27953L3.11484 2.27953L3.11979 2.35437C2.71422 2.38026 2.38632 2.70816 2.36043 3.11372M6.85607 2.03223L2.28559 3.10883L2.2856 3.1087L2.36043 3.11372M2.36043 3.11372L2.28559 3.10895L2.20472 4.31418M2.36043 3.11372L2.27688 4.35895C2.25267 4.34451 2.22861 4.32958 2.20472 4.31418M2.20472 4.31418L2.199 4.39933L1.11193 2.62003C1.16177 3.10722 1.4003 3.58924 1.7893 3.97824C1.91836 4.1073 2.05834 4.21977 2.20472 4.31418ZM3.14177 4.66136L3.14067 4.66126C3.10033 4.65775 3.06093 4.65195 3.02079 4.64514L3.11983 3.17052L3.11985 3.17053L3.11993 3.1689C3.12091 3.14731 3.13928 3.12537 3.16897 3.12233L6.90778 2.87519C6.91857 2.87506 6.92878 2.87421 6.93621 2.87359L6.93717 2.87351C6.94632 2.87274 6.95184 2.87233 6.95683 2.87233C7.13851 2.87233 7.31495 2.94512 7.44167 3.07184L12.6162 8.24637C12.7978 8.42795 12.8991 8.67064 12.8991 8.92968C12.8991 9.18873 12.7978 9.43142 12.6162 9.613L9.61331 12.6159C9.43173 12.7975 9.18904 12.8988 8.93 12.8988C8.67095 12.8988 8.42826 12.7975 8.24669 12.6159L3.06927 7.43848C2.92913 7.29834 2.85665 7.10657 2.8696 6.90966L2.96486 5.4835C2.99648 5.48791 3.02847 5.49197 3.06055 5.49518C3.14835 5.50396 3.23729 5.50993 3.32401 5.50993C3.93183 5.50993 4.47782 5.29611 4.88424 4.88969C5.04872 4.72521 5.04872 4.45912 4.88424 4.29464C4.71977 4.13016 4.45368 4.13016 4.2892 4.29464C4.00833 4.57551 3.60319 4.70834 3.14177 4.66136Z"   stroke-width="0.15"/>
</svg>
