<svg width="24" height="28" viewBox="0 0 24 28" xmlns="http://www.w3.org/2000/svg">
  <path
    d="M21.8652 5.31421L12.5657 0.147048C12.3923 0.0506112 12.1971 0 11.9987 0C11.8003 0 11.6051 0.0506112 11.4317 0.147048L2.1322 5.31421C1.58667 5.61731 1.1321 6.06075 0.815587 6.5986C0.499071 7.13645 0.332121 7.74914 0.332031 8.37321V22.1667C0.333884 23.7132 0.94906 25.1959 2.04262 26.2895C3.13618 27.383 4.61884 27.9982 6.16537 28.0001H17.832C19.3786 27.9982 20.8612 27.383 21.9548 26.2895C23.0483 25.1959 23.6635 23.7132 23.6654 22.1667V8.37321C23.6653 7.74914 23.4983 7.13645 23.1818 6.5986C22.8653 6.06075 22.4107 5.61731 21.8652 5.31421ZM21.332 22.1667C21.332 23.095 20.9633 23.9852 20.3069 24.6416C19.6505 25.298 18.7603 25.6667 17.832 25.6667H6.16537C5.23711 25.6667 4.34687 25.298 3.69049 24.6416C3.03411 23.9852 2.66536 23.095 2.66536 22.1667V8.37321C2.66485 8.16452 2.72032 7.95951 2.826 7.77955C2.93167 7.59958 3.08369 7.45127 3.2662 7.35005L11.9987 2.50138L20.7324 7.35005C20.9147 7.45142 21.0664 7.5998 21.1719 7.77975C21.2774 7.9597 21.3327 8.16464 21.332 8.37321V22.1667Z" />
  <path
    d="M12 9.91699C12.9665 9.91699 13.75 9.13349 13.75 8.16699C13.75 7.20049 12.9665 6.41699 12 6.41699C11.0335 6.41699 10.25 7.20049 10.25 8.16699C10.25 9.13349 11.0335 9.91699 12 9.91699Z" />
</svg>