<svg width="10" height="10" viewBox="0 0 10 10" xmlns="http://www.w3.org/2000/svg">
  <path fill-rule="evenodd" clip-rule="evenodd"
    d="M2.54098 3.46774C2.12794 3.46774 1.73182 3.62918 1.43975 3.91653C1.14769 4.20388 0.983607 4.59362 0.983607 5C0.983607 5.40638 1.14769 5.79612 1.43975 6.08347C1.58437 6.22575 1.75605 6.33862 1.945 6.41562C2.13395 6.49263 2.33647 6.53226 2.54098 6.53226H3.77049C4.04211 6.53226 4.2623 6.74889 4.2623 7.01613C4.2623 7.28336 4.04211 7.5 3.77049 7.5H2.54098C2.2073 7.5 1.87688 7.43534 1.56859 7.3097C1.2603 7.18406 0.980189 6.99991 0.744237 6.76777C0.26771 6.29893 0 5.66304 0 5C0 4.33696 0.26771 3.70107 0.744237 3.23223C1.22076 2.76339 1.86707 2.5 2.54098 2.5H3.77049C4.04211 2.5 4.2623 2.71664 4.2623 2.98387C4.2623 3.25111 4.04211 3.46774 3.77049 3.46774H2.54098ZM5.73771 2.98387C5.73771 2.71664 5.95789 2.5 6.22951 2.5H7.45902C7.7927 2.5 8.12312 2.56466 8.43141 2.6903C8.7397 2.81594 9.01981 3.00009 9.25576 3.23223C9.49172 3.46438 9.67888 3.73998 9.80658 4.04329C9.93428 4.34661 10 4.67169 10 5C10 5.32831 9.93428 5.65339 9.80658 5.95671C9.67888 6.26002 9.49172 6.53562 9.25576 6.76777C9.01981 6.99991 8.7397 7.18406 8.43141 7.3097C8.12312 7.43534 7.7927 7.5 7.45902 7.5H6.22951C5.95789 7.5 5.73771 7.28336 5.73771 7.01613C5.73771 6.74889 5.95789 6.53226 6.22951 6.53226H7.45902C7.66353 6.53226 7.86605 6.49263 8.055 6.41562C8.24395 6.33862 8.41563 6.22575 8.56025 6.08347C8.70486 5.94119 8.81958 5.77227 8.89784 5.58637C8.97611 5.40047 9.01639 5.20122 9.01639 5C9.01639 4.79878 8.97611 4.59953 8.89784 4.41363C8.81958 4.22773 8.70486 4.05881 8.56025 3.91653C8.41563 3.77425 8.24395 3.66138 8.055 3.58438C7.86605 3.50738 7.66353 3.46774 7.45902 3.46774H6.22951C5.95789 3.46774 5.73771 3.25111 5.73771 2.98387ZM2.86885 5C2.86885 4.73277 3.08904 4.51613 3.36066 4.51613H6.63935C6.91096 4.51613 7.13115 4.73277 7.13115 5C7.13115 5.26723 6.91096 5.48387 6.63935 5.48387H3.36066C3.08904 5.48387 2.86885 5.26723 2.86885 5Z"
    fill="#EAEAEA" />
</svg>