<svg width="28" height="28" viewBox="0 0 28 28" xmlns="http://www.w3.org/2000/svg">
  <path
    d="M27.3346 14.0003C27.3346 14.295 27.2176 14.5776 27.0092 14.786C26.8008 14.9944 26.5182 15.1114 26.2235 15.1114C25.9288 15.1114 25.6462 14.9944 25.4378 14.786C25.2295 14.5776 25.1124 14.295 25.1124 14.0003C25.1092 11.0545 23.9375 8.23019 21.8545 6.14716C19.7714 4.06412 16.9472 2.89245 14.0013 2.88921C13.7066 2.88921 13.424 2.77215 13.2156 2.56378C13.0073 2.3554 12.8902 2.07279 12.8902 1.7781C12.8902 1.48342 13.0073 1.2008 13.2156 0.992429C13.424 0.784055 13.7066 0.666992 14.0013 0.666992C17.5363 0.670816 20.9255 2.0768 23.4252 4.57646C25.9248 7.07611 27.3308 10.4653 27.3346 14.0003ZM18.4457 15.1114C18.7404 15.1114 19.023 14.9944 19.2314 14.786C19.4398 14.5776 19.5569 14.295 19.5569 14.0003C19.5569 13.7056 19.4398 13.423 19.2314 13.2147C19.023 13.0063 18.7404 12.8892 18.4457 12.8892H15.9157C15.7221 12.5564 15.4453 12.2795 15.1124 12.0859V8.44477C15.1124 8.15008 14.9953 7.86747 14.787 7.6591C14.5786 7.45072 14.296 7.33366 14.0013 7.33366C13.7066 7.33366 13.424 7.45072 13.2156 7.6591C13.0073 7.86747 12.8902 8.15008 12.8902 8.44477V12.0859C12.5955 12.2556 12.3438 12.4908 12.1546 12.7734C11.9655 13.056 11.8439 13.3783 11.7993 13.7154C11.7547 14.0526 11.7883 14.3954 11.8975 14.7175C12.0068 15.0395 12.1886 15.3321 12.4291 15.5725C12.6695 15.813 12.9621 15.9949 13.2842 16.1041C13.6062 16.2133 13.9491 16.2469 14.2862 16.2023C14.6233 16.1577 14.9457 16.0362 15.2282 15.847C15.5108 15.6578 15.7461 15.4061 15.9157 15.1114H18.4457ZM2.69797 8.20477C2.47821 8.20477 2.26339 8.26994 2.08067 8.39203C1.89795 8.51412 1.75553 8.68765 1.67144 8.89068C1.58734 9.09371 1.56534 9.31711 1.60821 9.53265C1.65108 9.74818 1.7569 9.94616 1.91229 10.1016C2.06769 10.2569 2.26567 10.3628 2.4812 10.4056C2.69674 10.4485 2.92014 10.4265 3.12317 10.3424C3.3262 10.2583 3.49973 10.1159 3.62182 9.93318C3.74391 9.75046 3.80908 9.53564 3.80908 9.31588C3.80908 9.0212 3.69202 8.73858 3.48364 8.53021C3.27527 8.32183 2.99265 8.20477 2.69797 8.20477ZM2.89019 14.0003C2.89019 13.7806 2.82503 13.5657 2.70294 13.383C2.58084 13.2003 2.40731 13.0579 2.20428 12.9738C2.00126 12.8897 1.77785 12.8677 1.56231 12.9106C1.34678 12.9534 1.1488 13.0593 0.993406 13.2147C0.838014 13.37 0.732191 13.568 0.689319 13.7836C0.646446 13.9991 0.66845 14.2225 0.752548 14.4255C0.836645 14.6286 0.979059 14.8021 1.16178 14.9242C1.3445 15.0463 1.55932 15.1114 1.77908 15.1114C2.07377 15.1114 2.35638 14.9944 2.56475 14.786C2.77313 14.5776 2.89019 14.295 2.89019 14.0003ZM14.0013 25.1114C13.7815 25.1114 13.5667 25.1766 13.384 25.2987C13.2013 25.4208 13.0589 25.5943 12.9748 25.7973C12.8907 26.0004 12.8687 26.2238 12.9115 26.4393C12.9544 26.6548 13.0602 26.8528 13.2156 27.0082C13.371 27.1636 13.569 27.2694 13.7845 27.3123C14.0001 27.3552 14.2235 27.3332 14.4265 27.2491C14.6295 27.165 14.8031 27.0226 14.9252 26.8398C15.0472 26.6571 15.1124 26.4423 15.1124 26.2225C15.1124 25.9279 14.9953 25.6452 14.787 25.4369C14.5786 25.2285 14.296 25.1114 14.0013 25.1114ZM5.35797 4.23033C5.13821 4.23033 4.92339 4.29549 4.74067 4.41758C4.55795 4.53967 4.41553 4.7132 4.33144 4.91623C4.24734 5.11926 4.22534 5.34267 4.26821 5.5582C4.31108 5.77374 4.4169 5.97172 4.57229 6.12711C4.72769 6.2825 4.92567 6.38833 5.1412 6.4312C5.35674 6.47407 5.58014 6.45207 5.78317 6.36797C5.9862 6.28387 6.15973 6.14146 6.28182 5.95874C6.40391 5.77602 6.46908 5.56119 6.46908 5.34144C6.46908 5.04675 6.35202 4.76414 6.14364 4.55576C5.93527 4.34739 5.65265 4.23033 5.35797 4.23033ZM9.3113 1.60144C9.09155 1.60144 8.87672 1.6666 8.694 1.78869C8.51128 1.91078 8.36887 2.08431 8.28477 2.28734C8.20067 2.49037 8.17867 2.71378 8.22154 2.92931C8.26441 3.14485 8.37024 3.34283 8.52563 3.49822C8.68102 3.65361 8.879 3.75944 9.09453 3.80231C9.31007 3.84518 9.53348 3.82318 9.7365 3.73908C9.93953 3.65498 10.1131 3.51257 10.2352 3.32985C10.3572 3.14713 10.4224 2.9323 10.4224 2.71255C10.4224 2.41786 10.3053 2.13525 10.097 1.92687C9.8886 1.7185 9.60599 1.60144 9.3113 1.60144ZM2.69797 17.5737C2.47821 17.5737 2.26339 17.6388 2.08067 17.7609C1.89795 17.883 1.75553 18.0565 1.67144 18.2596C1.58734 18.4626 1.56534 18.686 1.60821 18.9015C1.65108 19.1171 1.7569 19.3151 1.91229 19.4704C2.06769 19.6258 2.26567 19.7317 2.4812 19.7745C2.69674 19.8174 2.92014 19.7954 3.12317 19.7113C3.3262 19.6272 3.49973 19.4848 3.62182 19.3021C3.74391 19.1193 3.80908 18.9045 3.80908 18.6848C3.80908 18.3901 3.69202 18.1075 3.48364 17.8991C3.27527 17.6907 2.99265 17.5737 2.69797 17.5737ZM5.35797 21.5481C5.13821 21.5481 4.92339 21.6133 4.74067 21.7354C4.55795 21.8574 4.41553 22.031 4.33144 22.234C4.24734 22.437 4.22534 22.6604 4.26821 22.876C4.31108 23.0915 4.4169 23.2895 4.57229 23.4449C4.72769 23.6003 4.92567 23.7061 5.1412 23.749C5.35674 23.7918 5.58014 23.7698 5.78317 23.6857C5.9862 23.6016 6.15973 23.4592 6.28182 23.2765C6.40391 23.0938 6.46908 22.879 6.46908 22.6592C6.46908 22.3645 6.35202 22.0819 6.14364 21.8735C5.93527 21.6652 5.65265 21.5481 5.35797 21.5481ZM9.3113 24.177C9.09155 24.177 8.87672 24.2422 8.694 24.3642C8.51128 24.4863 8.36887 24.6599 8.28477 24.8629C8.20067 25.0659 8.17867 25.2893 8.22154 25.5049C8.26441 25.7204 8.37024 25.9184 8.52563 26.0738C8.68102 26.2292 8.879 26.335 9.09453 26.3779C9.31007 26.4207 9.53348 26.3987 9.7365 26.3146C9.93953 26.2305 10.1131 26.0881 10.2352 25.9054C10.3572 25.7227 10.4224 25.5079 10.4224 25.2881C10.4224 24.9934 10.3053 24.7108 10.097 24.5024C9.8886 24.2941 9.60599 24.177 9.3113 24.177ZM25.3046 17.5737C25.0849 17.5737 24.8701 17.6388 24.6873 17.7609C24.5046 17.883 24.3622 18.0565 24.2781 18.2596C24.194 18.4626 24.172 18.686 24.2149 18.9015C24.2577 19.1171 24.3636 19.3151 24.519 19.4704C24.6744 19.6258 24.8723 19.7317 25.0879 19.7745C25.3034 19.8174 25.5268 19.7954 25.7298 19.7113C25.9329 19.6272 26.1064 19.4848 26.2285 19.3021C26.3506 19.1193 26.4157 18.9045 26.4157 18.6848C26.4157 18.5389 26.387 18.3944 26.3312 18.2596C26.2753 18.1248 26.1935 18.0023 26.0903 17.8991C25.9871 17.7959 25.8646 17.7141 25.7298 17.6582C25.595 17.6024 25.4505 17.5737 25.3046 17.5737ZM22.6446 21.5481C22.4249 21.5481 22.2101 21.6133 22.0273 21.7354C21.8446 21.8574 21.7022 22.031 21.6181 22.234C21.534 22.437 21.512 22.6604 21.5549 22.876C21.5977 23.0915 21.7036 23.2895 21.859 23.4449C22.0144 23.6003 22.2123 23.7061 22.4279 23.749C22.6434 23.7918 22.8668 23.7698 23.0698 23.6857C23.2729 23.6016 23.4464 23.4592 23.5685 23.2765C23.6906 23.0938 23.7557 22.879 23.7557 22.6592C23.7557 22.5133 23.727 22.3688 23.6712 22.234C23.6153 22.0992 23.5335 21.9767 23.4303 21.8735C23.3271 21.7704 23.2046 21.6885 23.0698 21.6327C22.935 21.5768 22.7905 21.5481 22.6446 21.5481ZM18.6913 24.177C18.4715 24.177 18.2567 24.2422 18.074 24.3642C17.8913 24.4863 17.7489 24.6599 17.6648 24.8629C17.5807 25.0659 17.5587 25.2893 17.6015 25.5049C17.6444 25.7204 17.7502 25.9184 17.9056 26.0738C18.061 26.2292 18.259 26.335 18.4745 26.3779C18.6901 26.4207 18.9135 26.3987 19.1165 26.3146C19.3195 26.2305 19.4931 26.0881 19.6152 25.9054C19.7372 25.7227 19.8024 25.5079 19.8024 25.2881C19.8024 25.1422 19.7737 24.9977 19.7178 24.8629C19.662 24.7281 19.5802 24.6056 19.477 24.5024C19.3738 24.3993 19.2513 24.3174 19.1165 24.2616C18.9817 24.2057 18.8372 24.177 18.6913 24.177Z" />
</svg>