<svg width="16" height="16" viewBox="0 0 16 16" fill="none" xmlns="http://www.w3.org/2000/svg">
<path d="M6.66797 3.33333C6.66797 4.06867 7.26597 4.66667 8.0013 4.66667C8.73664 4.66667 9.33464 4.06867 9.33464 3.33333C9.33464 2.598 8.73664 2 8.0013 2C7.26597 2 6.66797 2.598 6.66797 3.33333Z" fill="white"/>
<path d="M6.66797 7.99935C6.66797 8.73468 7.26597 9.33268 8.0013 9.33268C8.73664 9.33268 9.33464 8.73468 9.33464 7.99935C9.33464 7.26402 8.73664 6.66602 8.0013 6.66602C7.26597 6.66602 6.66797 7.26402 6.66797 7.99935Z" fill="white"/>
<path d="M6.66797 12.6673C6.66797 13.4027 7.26597 14.0007 8.0013 14.0007C8.73664 14.0007 9.33464 13.4027 9.33464 12.6673C9.33464 11.932 8.73664 11.334 8.0013 11.334C7.26597 11.334 6.66797 11.932 6.66797 12.6673Z" fill="white"/>
</svg>
