<svg width="18" height="18" viewBox="0 0 18 18"  xmlns="http://www.w3.org/2000/svg">
<path d="M9.65907 0.273032C9.29441 -0.0916227 8.70476 -0.0916228 8.34398 0.273032L4.8332 3.78381C4.46855 4.14846 4.46855 4.73812 4.8332 5.09889C5.19786 5.46355 5.78751 5.46355 6.14829 5.09889L8.06855 3.17864L8.06855 13.3463C8.06855 13.8623 8.48363 14.2773 8.99958 14.2773C9.51553 14.2773 9.93062 13.8623 9.93062 13.3463L9.93062 3.17864L11.8509 5.09889C12.2155 5.46355 12.8052 5.46355 13.166 5.0989C13.5306 4.73424 13.5306 4.14458 13.166 3.78381L9.65907 0.273032Z" fill="white"/>
<path d="M17.069 8.06934C16.553 8.06934 16.1379 8.48442 16.1379 9.00037V16.1383H1.86207V9.00037C1.86207 8.48442 1.44698 8.06934 0.931034 8.06934C0.415086 8.06934 0 8.48442 0 9.00037V16.4486C0 17.306 0.694396 18.0004 1.55172 18.0004H16.4483C17.3056 18.0004 18 17.306 18 16.4486V9.00037C18 8.48442 17.5849 8.06934 17.069 8.06934Z" fill="white"/>
</svg>
