<svg width="20" height="20" viewBox="0 0 20 20" fill="none" xmlns="http://www.w3.org/2000/svg">
<g clip-path="url(#clip0_3155_1339)">
<path d="M19.3923 7.84956C18.0998 5.74456 15.1598 2.21289 9.9998 2.21289C4.8398 2.21289 1.8998 5.74456 0.607299 7.84956C0.207739 8.49581 -0.00390625 9.24059 -0.00390625 10.0004C-0.00390625 10.7602 0.207739 11.505 0.607299 12.1512C1.8998 14.2562 4.8398 17.7879 9.9998 17.7879C15.1598 17.7879 18.0998 14.2562 19.3923 12.1512C19.7919 11.505 20.0035 10.7602 20.0035 10.0004C20.0035 9.24059 19.7919 8.49581 19.3923 7.84956ZM17.9715 11.2787C16.8615 13.0837 14.349 16.1212 9.9998 16.1212C5.65063 16.1212 3.13813 13.0837 2.02813 11.2787C1.79074 10.8946 1.66501 10.452 1.66501 10.0004C1.66501 9.54883 1.79074 9.10619 2.02813 8.72206C3.13813 6.91706 5.65063 3.87956 9.9998 3.87956C14.349 3.87956 16.8615 6.91372 17.9715 8.72206C18.2089 9.10619 18.3346 9.54883 18.3346 10.0004C18.3346 10.452 18.2089 10.8946 17.9715 11.2787Z" fill="#EAEAEA"/>
<path d="M10.0007 5.83398C9.17656 5.83398 8.37098 6.07836 7.68578 6.53619C7.00057 6.99403 6.46652 7.64478 6.15115 8.40614C5.83579 9.1675 5.75328 10.0053 5.91405 10.8135C6.07482 11.6218 6.47166 12.3642 7.05437 12.9469C7.63709 13.5296 8.37952 13.9265 9.18778 14.0873C9.99603 14.248 10.8338 14.1655 11.5952 13.8502C12.3565 13.5348 13.0073 13.0007 13.4651 12.3155C13.9229 11.6303 14.1673 10.8247 14.1673 10.0007C14.166 8.89599 13.7266 7.83695 12.9455 7.05583C12.1644 6.27472 11.1053 5.83531 10.0007 5.83398ZM10.0007 12.5007C9.5062 12.5007 9.02285 12.354 8.61173 12.0793C8.2006 11.8046 7.88017 11.4142 7.69095 10.9574C7.50173 10.5005 7.45223 9.99788 7.54869 9.51293C7.64515 9.02797 7.88325 8.58252 8.23289 8.23288C8.58252 7.88325 9.02798 7.64515 9.51293 7.54869C9.99788 7.45222 10.5005 7.50173 10.9574 7.69095C11.4142 7.88017 11.8046 8.2006 12.0793 8.61173C12.354 9.02285 12.5007 9.5062 12.5007 10.0007C12.5007 10.6637 12.2373 11.2996 11.7684 11.7684C11.2996 12.2373 10.6637 12.5007 10.0007 12.5007Z" fill="#EAEAEA"/>
</g>
<defs>
<clipPath id="clip0_3155_1339">
<rect width="20" height="20" fill="white"/>
</clipPath>
</defs>
</svg>
