<svg width="65" height="27" viewBox="0 0 65 27" fill="none" xmlns="http://www.w3.org/2000/svg">
<path d="M59.9605 3.20175C57.3676 3.20175 55.4229 5.12281 55.4229 7.68421C55.4229 8.32456 55.747 8.96491 56.0711 9.60526L47.3202 17.6096C46.6719 17.2895 45.6996 16.9693 45.0514 16.9693C44.0791 16.9693 43.4308 17.2895 42.7826 17.6096L39.5415 14.4079L37.5968 12.807L30.7905 6.40351C31.1146 5.76316 31.4387 5.12281 31.4387 4.48246C31.4387 1.92105 29.4941 0 26.9012 0C24.3083 0 22.3636 1.92105 22.3636 4.48246C22.3636 5.12281 22.3636 5.76316 22.6877 6.08333L7.13043 17.9298C6.48221 17.6096 5.50988 17.2895 4.53755 17.2895C1.94466 17.2895 0 19.2105 0 21.7719C0 24.3333 1.94466 26.2544 4.53755 26.2544C7.13043 26.2544 9.0751 24.3333 9.0751 21.7719C9.0751 21.1316 9.0751 20.4912 8.75099 20.1711L22.6877 9.28509C22.6877 9.28509 22.6877 9.28509 23.0119 9.28509L23.9842 8.32456C24.6324 8.96491 25.6047 9.28509 26.5771 9.28509C27.5494 9.28509 28.1976 8.96491 28.8458 8.64474L35.004 14.4079L36.9486 16.3289L40.8379 20.1711C40.5138 20.8114 40.1897 21.4518 40.1897 22.0921C40.1897 24.6535 42.1344 26.5746 44.7273 26.5746C47.3202 26.5746 49.2648 24.6535 49.2648 22.0921C49.2648 21.4518 48.9407 20.8114 48.6166 20.1711L57.3676 12.1667C58.0158 12.4868 58.9881 12.807 59.6364 12.807C62.2292 12.807 64.1739 10.886 64.1739 8.32456C64.498 5.44298 62.2292 3.20175 59.9605 3.20175ZM4.53755 23.693C3.56522 23.693 2.59289 22.7325 2.59289 21.7719C2.59289 20.8114 3.56522 19.8509 4.53755 19.8509C5.50988 19.8509 6.48221 20.8114 6.48221 21.7719C6.80632 22.7325 5.83399 23.693 4.53755 23.693ZM26.5771 6.40351C25.6047 6.40351 24.6324 5.44298 24.6324 4.48246C24.6324 3.52193 25.6047 2.5614 26.5771 2.5614C27.5494 2.5614 28.5217 3.52193 28.5217 4.48246C28.5217 5.76316 27.5494 6.40351 26.5771 6.40351ZM44.7273 23.693C43.7549 23.693 42.7826 22.7325 42.7826 21.7719C42.7826 21.1316 43.1067 20.8114 43.4308 20.4912C43.7549 20.1711 44.4032 19.8509 45.0514 19.8509C45.6996 19.8509 46.0237 20.1711 46.6719 20.4912C46.996 20.8114 47.3202 21.4518 47.3202 21.7719C46.996 22.7325 46.0237 23.693 44.7273 23.693ZM59.9605 9.92544C58.9881 9.92544 58.0158 8.96491 58.0158 8.00438C58.0158 7.04386 58.9881 6.08333 59.9605 6.08333C60.9328 6.08333 61.9051 7.04386 61.9051 8.00438C61.9051 8.96491 60.9328 9.92544 59.9605 9.92544Z" fill="#4C576D"/>
</svg>
