<svg viewBox="0 0 17 16"  xmlns="http://www.w3.org/2000/svg">
<path d="M12.8578 14.3183L13.6681 14.4196C14.0307 14.4653 14.2888 14.7953 14.2464 15.1612C14.2039 15.4978 13.9294 15.7722 13.5047 15.7395L11.0673 15.4357C10.7046 15.3899 10.4465 15.0599 10.489 14.6973L10.7896 12.2272C10.8353 11.8645 11.1653 11.6031 11.528 11.6489C11.8906 11.6946 12.152 12.0246 12.1063 12.3906L11.9952 13.3087C14.2856 11.6097 15.2364 8.66256 14.3575 5.93435C13.4786 3.20615 10.8974 1.33399 8.04503 1.32745C7.62354 1.32745 7.35562 1.04646 7.34582 0.680525C7.33929 0.314587 7.60067 0.000926018 8.04503 0.000926018C11.4692 0.000926018 14.5698 2.2521 15.6219 5.52921C16.6674 8.76711 15.5566 12.2729 12.8578 14.3183Z" fill="white"/>
<path d="M5.21779 3.77373C5.17205 4.1364 4.84205 4.39779 4.47938 4.35205C4.11671 4.3063 3.85532 3.97631 3.90107 3.61037L4.01215 2.69226C1.72177 4.39126 0.770985 7.33837 1.64989 10.0666C2.5288 12.7948 5.10997 14.6669 7.96233 14.6735C8.38381 14.6735 8.65173 14.9545 8.66153 15.3204C8.66807 15.6863 8.40668 16 7.96233 16C4.54146 16.0033 1.44078 13.7521 0.38871 10.475C-0.656828 7.23055 0.454057 3.72472 3.15285 1.67939L2.34256 1.5781C1.97989 1.53236 1.72177 1.20236 1.76425 0.836425C1.80672 0.499892 2.08118 0.225439 2.50593 0.258112L4.94334 0.561972C5.30601 0.607714 5.56412 0.937712 5.52165 1.30038L5.21779 3.77373Z" fill="white"/>
</svg>
