<svg viewBox="0 0 14 14"  xmlns="http://www.w3.org/2000/svg">
<path d="M11.6028 9.12395C10.919 9.12395 10.3039 9.41652 9.86726 9.88347L4.76476 7.34275C4.78231 7.22338 4.79439 7.10255 4.79439 6.9782C4.79439 6.85708 4.78289 6.73888 4.7662 6.62273L9.86122 4.1098C10.2982 4.58055 10.9161 4.87605 11.6028 4.87605C12.9267 4.87605 14 3.78446 14 2.43803C14 1.0913 12.9267 0 11.6028 0C10.2789 0 9.20561 1.0913 9.20561 2.43803C9.20561 2.55915 9.21711 2.67706 9.2338 2.7935L4.13878 5.30643C3.7018 4.83568 3.08417 4.54018 2.3972 4.54018C1.07303 4.54018 0 5.63177 0 6.9782C0 8.32493 1.07303 9.41623 2.3972 9.41623C3.081 9.41623 3.69605 9.12365 4.13274 8.6567L9.23524 11.1974C9.21769 11.3165 9.20561 11.4376 9.20561 11.562C9.20561 12.9087 10.2789 14 11.6028 14C12.9267 14 14 12.9087 14 11.562C14 10.2153 12.9267 9.12395 11.6028 9.12395Z" fill="white"/>
</svg>
